<svg xmlns="http://www.w3.org/2000/svg" xmlns:xlink="http://www.w3.org/1999/xlink" viewBox="-147 -70 294 345">
  <g fill="#FFF">
    <use xlink:href="#a" transform="scale(-1,1)" />
    <g id="a" stroke-opacity="0">
      <rect rx="6.5" transform="rotate(-29)" height="50" width="10" y="-80" x="-18" />
      <rect id="c" rx="24" height="133" width="46" y="41" x="-145" />
      <use y="97" x="85" xlink:href="#c" />
    </g>
    <path
       d="m 147,27 c -50.257912,0 -91,37.608081 -91,84 0.0056,0.10743 0.01149,0.21486 0.01758,0.32227 C 56.010791,111.54804 56,111.77252 56,112 l 0,4.44922 182,0 L 238,112 c 0,-0.2006 -0.0103,-0.39838 -0.0156,-0.59766 0.006,-0.1341 0.0108,-0.26822 0.0156,-0.40234 0,-46.391919 -40.74209,-84 -91,-84 z m 91,96.64844 c -158.666667,147.56771 -79.33333,73.78385 0,0 z m 0,0 -182,0 L 56,250 c 0,12.188 9.812,22 22,22 l 138,0 c 12.188,0 22,-9.812 22,-22 z M 105,62.400391 c 4.19706,2.15e-4 7.59939,3.40255 7.59961,7.599609 -2.2e-4,4.197059 -3.40255,7.599394 -7.59961,7.599609 C 100.80294,77.599393 97.400607,74.197059 97.400391,70 97.400607,65.802941 100.80294,62.400607 105,62.400391 Z m 84,0 c 4.19706,2.15e-4 7.59939,3.40255 7.59961,7.599609 -2.2e-4,4.197059 -3.40255,7.599394 -7.59961,7.599609 -4.19706,-2.15e-4 -7.59939,-3.40255 -7.59961,-7.599609 2.2e-4,-4.197059 3.40255,-7.599394 7.59961,-7.599609 z"
       transform="translate(-147,-70)" />
  </g>
</svg>
