<svg xmlns="http://www.w3.org/2000/svg" viewBox="0 0 140 140">
  <g fill="#FFFFFF">
    <path class="st0" d="M56.57,97.97c0,0-3.91,2.27,2.78,3.04c8.11,0.93,12.25,0.79,21.19-0.9c0,0,2.35,1.47,5.63,2.75  C66.14,111.45,40.84,102.36,56.57,97.97"/>
    <path class="st0" d="M54.12,86.77c0,0-4.39,3.25,2.31,3.94c8.66,0.89,15.5,0.97,27.34-1.31c0,0,1.64,1.66,4.21,2.57  C63.77,99.04,36.79,92.52,54.12,86.77"/>
    <path class="st0" d="M74.76,67.76c4.94,5.68-1.3,10.8-1.3,10.8s12.53-6.47,6.78-14.57c-5.38-7.55-9.5-11.31,12.82-24.25  C93.06,39.74,58.03,48.49,74.76,67.76"/>
    <path class="st0" d="M101.25,106.25c0,0,2.89,2.39-3.19,4.23c-11.56,3.5-48.12,4.56-58.27,0.14c-3.65-1.59,3.2-3.79,5.35-4.25  c2.25-0.49,3.53-0.4,3.53-0.4c-4.06-2.86-26.24,5.62-11.27,8.04C78.24,120.64,111.84,111.03,101.25,106.25"/>
    <path class="st0" d="M58.45,75.16c0,0-18.6,4.42-6.58,6.02c5.07,0.68,15.18,0.52,24.6-0.26c7.7-0.65,15.42-2.03,15.42-2.03  s-2.71,1.16-4.68,2.5c-18.88,4.97-55.36,2.66-44.86-2.42C51.23,74.67,58.45,75.16,58.45,75.16"/>
    <path class="st0" d="M91.81,93.81c19.2-9.98,10.32-19.56,4.13-18.27c-1.52,0.32-2.2,0.59-2.2,0.59s0.56-0.88,1.64-1.27  c12.26-4.31,21.68,12.71-3.96,19.45C91.42,94.31,91.72,94.04,91.81,93.81"/>
    <path class="st0" d="M80.24,18.84c0,0,10.63,10.63-10.08,26.99c-16.61,13.12-3.79,20.6-0.01,29.14  c-9.7-8.75-16.81-16.45-12.04-23.62C65.12,40.84,84.53,35.73,80.24,18.84"/>
    <path class="st0" d="M60.34,120.84c18.43,1.18,46.72-0.65,47.39-9.37c0,0-1.29,3.31-15.23,5.93c-15.73,2.96-35.12,2.61-46.63,0.72  C45.87,118.11,48.23,120.06,60.34,120.84"/>
  </g>
</svg>
