<svg xmlns="http://www.w3.org/2000/svg" width="280px" height="453px" viewBox="0 0 280 453">
  <g fill="#FFFFFF" transform="translate(139.750000, 226.500000) scale(1, -1) translate(-139.750000, -226.500000)">
    <path d="M0.116249084,243.931254 L0.116249084,139.336242 C0.116249084,148.052492 279.03875,165.484993 279.03875,209.066242 L279.03875,209.066242 L279.03875,313.662495 C279.038788,270.081233 0.116249084,252.648753 0.116249084,243.931254" />
    <path d="M0.116249084,104.471268 L0.116249084,-0.124984741 C0.116249084,8.59126532 279.03875,26.0250154 279.03875,69.6062651 L279.03875,69.6062651 L279.03875,174.201263 C279.038788,130.618767 0.116249084,113.186287 0.116249084,104.471268" />
    <path d="M0.116249084,383.395003 L0.116249084,278.798751 C0.116249084,287.515001 279.03875,304.948751 279.03875,348.528751 L279.03875,348.528751 L279.03875,453.125004 C279.038788,409.543761 0.116249084,392.111262 0.116249084,383.395003" />
  </g>
</svg>
