<?xml version="1.0" encoding="UTF-8" standalone="no"?>
<svg
   xmlns="http://www.w3.org/2000/svg"
   xmlns:xlink="http://www.w3.org/1999/xlink"
   viewBox="-147 -70 294 345"
   id="scala-android-logo"
   version="1.1"
   width="100%"
   height="100%">
  <g
     fill="#FFF"
     id="scala-android">
    <g
       id="limbs"
       stroke-opacity="0">
      <rect
         rx="6.5"
         transform="rotate(-29)"
         height="50"
         width="10"
         y="-80"
         x="-18"
         id="antenna" />
      <rect
         id="arm"
         rx="24"
         height="133"
         width="46"
         y="41"
         x="-145" />
      <rect
         id="leg"
         rx="24"
         height="102"
         width="46"
         y="168"
         x="-60" />
    </g>
    <use
       xlink:href="#limbs"
       transform="scale(-1,1)"
       id="limbs-right" />
    <path
       style="fill:#ffffff"
       transform="matrix(0.65251921,0,0,-0.52283247,-91.085563,226.23223)"
       id="scala-android-body"
       d="m 0.11624908,243.93125 0,-104.59501 c 0,8.71625 278.92250092,26.14875 278.92250092,69.73 l 0,0 0,104.59625 C 279.03879,270.08123 0.11624908,252.64875 0.11624908,243.93125 M 139.59062,514.94933 C 62.760083,514.94933 0.54073351,443.13429 0.23289583,354.7044 0.0647843,322.10086 0.10718305,301.82173 0.11616363,278.7995 c 0,8.71476 278.83821637,21.50207 278.93395637,65.06401 l 0,0.0224 c -0.005,6.90305 -0.005,8.51194 0,10.40008 0,88.7319 -62.43815,160.66332 -139.4595,160.66332 z M 75.224702,447.24047 c 6.432086,-4.1e-4 11.646232,-6.50792 11.646569,-14.53546 -3.37e-4,-8.02754 -5.214483,-14.53504 -11.646569,-14.53546 -6.432087,4.2e-4 -11.646237,6.50792 -11.646568,14.53546 3.31e-4,8.02754 5.214481,14.53505 11.646568,14.53546 z m 128.731838,0 c 6.43209,-4.1e-4 11.64624,-6.50792 11.64657,-14.53546 -3.3e-4,-8.02754 -5.21448,-14.53504 -11.64657,-14.53546 -6.43208,4.2e-4 -11.64623,6.50792 -11.64656,14.53546 3.3e-4,8.02754 5.21448,14.53505 11.64656,14.53546 z M 279.03782,174.20098 C 279.03792,130.61849 0.11586939,113.18616 0.11586939,104.47113 0.14673438,99.698724 0.13231335,90.796101 0.13073485,88.426471 0.10714934,65.13006 15.16784,46.347982 33.846217,46.347982 l 211.488023,0 c 18.67838,0 33.71548,18.767006 33.71548,42.078489 -0.005,33.109169 0.025,68.188629 -0.0123,85.774419 z"/>
  </g>
</svg>
